<svg width="52" height="52" viewBox="0 0 52 52" fill="none" xmlns="http://www.w3.org/2000/svg">
<g clip-path="url(#clip0_1711_4538)">
<path d="M4.80542 18.8196V15.556L26.0011 0.652222L47.1967 15.556V18.8196H4.80542Z" stroke="black" stroke-width="1.08696" stroke-miterlimit="10"/>
<path d="M26.002 12.0753C27.2026 12.0753 28.1759 11.1012 28.1759 9.89961C28.1759 8.69799 27.2026 7.72388 26.002 7.72388C24.8014 7.72388 23.8281 8.69799 23.8281 9.89961C23.8281 11.1012 24.8014 12.0753 26.002 12.0753Z" stroke="black" stroke-width="0.760869" stroke-miterlimit="10"/>
<path d="M5.89238 42.6443V46.5606H1.54456V51.3472H26.0011H50.4576V46.5606H46.1098V42.6443H5.89238Z" stroke="black" stroke-width="1.08696" stroke-miterlimit="10"/>
<path d="M11.3269 18.8201V42.7531" stroke="black" stroke-width="1.08696" stroke-miterlimit="10"/>
<path d="M16.7609 18.8201V42.7531" stroke="black" stroke-width="1.08696" stroke-miterlimit="10"/>
<path d="M14.0432 18.929V42.7532" stroke="black" stroke-width="1.08696" stroke-miterlimit="10"/>
<path d="M23.2835 18.8201V42.7531" stroke="black" stroke-width="1.08696" stroke-miterlimit="10"/>
<path d="M28.7186 18.8201V42.7531" stroke="black" stroke-width="1.08696" stroke-miterlimit="10"/>
<path d="M26.0007 18.929V42.7532" stroke="black" stroke-width="1.08696" stroke-miterlimit="10"/>
<path d="M35.2386 18.8201V42.7531" stroke="black" stroke-width="1.08696" stroke-miterlimit="10"/>
<path d="M40.6735 18.8201V42.7531" stroke="black" stroke-width="1.08696" stroke-miterlimit="10"/>
<path d="M37.9563 18.929V42.7532" stroke="black" stroke-width="1.08696" stroke-miterlimit="10"/>
</g>
<defs>
<clipPath id="clip0_1711_4538">
<rect width="50" height="52" fill="white" transform="translate(1)"/>
</clipPath>
</defs>
</svg>
