<svg width="1376" height="92" viewBox="0 0 1376 92" fill="none" xmlns="http://www.w3.org/2000/svg">
<path d="M21.9051 24.1722C22.2619 45.5832 22.2619 68.6596 22.2619 89H0.0182707V2.6423H40.5802C44.3866 20.7227 49.8583 44.0369 51.7615 62.1173H52.951C54.8542 44.0369 59.8501 20.7227 63.2997 2.6423H103.624V89H81.0232C81.0232 68.6596 81.0232 45.5832 81.3801 24.1722H79.9527C75.7894 45.5832 70.1988 68.6596 65.9166 89H37.2496C32.9674 68.6596 27.3768 45.5832 23.4514 24.1722H21.9051ZM186.95 54.9803C186.95 78.6513 174.579 91.0222 150.908 91.0222C127.475 91.0222 114.391 78.2945 114.391 55.0992V2.6423H138.894V52.3634C138.894 65.0911 142.225 70.0869 150.313 70.0869C158.402 70.0869 162.446 65.0911 162.446 52.3634V2.6423H186.95V54.9803ZM220.387 61.1657C220.744 68.4216 223.837 71.6333 230.974 71.6333C236.802 71.6333 240.965 68.7785 240.965 64.6152C240.965 59.9762 238.111 58.4299 224.788 54.9803C212.417 51.7686 206.946 49.6275 202.307 45.2264C197.668 41.0631 195.408 34.7588 195.408 27.6218C195.408 11.3256 208.492 0.620149 229.903 0.620149C242.274 0.620149 252.86 4.0697 258.57 10.1361C262.971 14.7752 264.993 20.3658 264.993 29.406H239.062C238.705 22.6259 236.088 20.009 229.546 20.009C224.431 20.009 220.982 22.5069 220.982 26.3134C220.982 28.6923 222.171 30.4766 224.669 31.5472C227.048 32.7366 229.784 33.5693 237.635 35.4725C249.054 38.4462 255.12 40.8252 259.522 44.9885C264.636 49.7465 266.778 56.1698 266.778 63.3068C266.778 80.4356 252.86 91.0222 229.784 91.0222C206.113 91.0222 194.218 80.3166 194.218 61.1657H220.387ZM336.025 2.6423V23.4586H299.626V34.9967H332.694V55.8129H299.626V68.1837H336.025V89H275.123V2.6423H336.025ZM417.681 54.9803C417.681 78.6513 405.31 91.0222 381.639 91.0222C358.206 91.0222 345.121 78.2945 345.121 55.0992V2.6423H369.625V52.3634C369.625 65.0911 372.955 70.0869 381.044 70.0869C389.133 70.0869 393.177 65.0911 393.177 52.3634V2.6423H417.681V54.9803ZM450.404 24.1722C450.761 45.5832 450.761 68.6596 450.761 89H428.517V2.6423H469.079C472.885 20.7227 478.357 44.0369 480.26 62.1173H481.45C483.353 44.0369 488.349 20.7227 491.798 2.6423H532.123V89H509.522C509.522 68.6596 509.522 45.5832 509.879 24.1722H508.451C504.288 45.5832 498.698 68.6596 494.415 89H465.748C461.466 68.6596 455.876 45.5832 451.95 24.1722H450.404ZM601.674 2.6423C627.01 2.6423 641.998 19.0574 641.998 45.5832C641.998 69.7301 629.865 89 600.009 89H566.346V2.6423H601.674ZM597.511 67.8269C611.309 67.8269 616.543 59.9762 616.543 45.8212C616.543 31.4282 611.428 23.8154 597.511 23.8154H590.849V67.8269H597.511ZM711.438 2.6423V23.4586H675.039V34.9967H708.107V55.8129H675.039V68.1837H711.438V89H650.535V2.6423H711.438ZM756.576 2.6423C776.44 2.6423 790.833 12.0394 790.833 32.3798C790.833 52.8392 777.63 62.2362 756.576 62.2362H745.87V89H721.366V2.6423H756.576ZM752.531 41.6579C762.047 41.6579 765.854 39.3978 765.854 32.3798C765.854 25.5996 761.928 23.1017 752.531 23.1017H745.87V41.6579H752.531ZM846.345 2.6423L875.844 89H848.724L844.442 73.8933H814.228L809.827 89H784.253L813.752 2.6423H846.345ZM828.74 22.0311C825.766 32.9745 822.436 43.5611 819.581 54.5045H838.851C835.639 43.5611 832.665 32.9745 829.93 22.0311H828.74ZM915.064 2.6423C926.84 2.6423 933.383 4.5455 938.854 8.70875C944.445 13.1099 947.3 19.6522 947.3 26.6702C947.3 36.543 941.114 47.0106 928.506 48.3191V49.2707C939.33 49.8654 942.304 57.1214 945.516 67.9459L951.701 89H925.651L923.034 77.3429C919.584 61.7604 918.276 59.5004 909.95 59.5004H905.073V89H880.569V2.6423H915.064ZM911.139 39.8736C919.347 39.8736 923.51 37.0189 923.51 31.3092C923.51 25.2428 919.822 22.8638 911.139 22.8638H905.073V39.8736H911.139ZM950.464 23.8154V2.6423H1025.4V23.8154H1000.19V89H975.681V23.8154H950.464ZM1053.76 24.1722C1054.12 45.5832 1054.12 68.6596 1054.12 89H1031.87V2.6423H1072.43C1076.24 20.7227 1081.71 44.0369 1083.62 62.1173H1084.81C1086.71 44.0369 1091.7 20.7227 1095.15 2.6423H1135.48V89H1112.88C1112.88 68.6596 1112.88 45.5832 1113.23 24.1722H1111.81C1107.64 45.5832 1102.05 68.6596 1097.77 89H1069.1C1064.82 68.6596 1059.23 45.5832 1055.31 24.1722H1053.76ZM1207.98 2.6423V23.4586H1171.58V34.9967H1204.65V55.8129H1171.58V68.1837H1207.98V89H1147.08V2.6423H1207.98ZM1294.51 89H1258.95C1252.28 69.0164 1243.84 44.1559 1239.68 24.1722H1238.49C1238.84 44.1559 1239.68 69.0164 1239.68 89H1217.91V2.6423H1253.59C1260.02 22.7448 1269.06 46.2969 1273.46 66.2805H1274.65C1274.05 45.9401 1272.86 22.9828 1272.86 2.6423H1294.51V89ZM1300.93 23.8154V2.6423H1375.87V23.8154H1350.65V89H1326.15V23.8154H1300.93Z" fill="#1B1B1B"/>
</svg>
